<?xml version="1.0" encoding="UTF-8" standalone="no"?>
<!DOCTYPE svg PUBLIC "-//W3C//DTD SVG 1.1//EN" "http://www.w3.org/Graphics/SVG/1.1/DTD/svg11.dtd">
<svg xmlns="http://www.w3.org/2000/svg" version="1.1" viewBox="0.00 0.00 1024.00 1024.00">
<g stroke-width="2.00" fill="none" stroke-linecap="butt">
<path stroke="#878788" vector-effect="non-scaling-stroke" d="
  M 276.46 231.38
  Q 275.92 232.57 275.91 234.50
  Q 275.59 303.26 276.06 388.01
  C 276.15 405.36 275.46 424.34 276.32 439.99
  C 278.77 485.13 296.22 526.70 322.96 562.58
  Q 350.50 599.52 387.39 631.40
  Q 419.73 659.35 456.30 683.95
  Q 464.15 689.22 467.54 691.22
  Q 497.42 708.77 506.21 713.79
  Q 508.82 715.28 509.64 715.65
  A 2.20 2.19 41.8 0 0 511.66 715.54
  C 531.58 703.87 555.38 690.43 576.05 675.71
  Q 619.65 644.67 658.81 606.43
  C 685.40 580.45 708.63 550.94 724.42 517.47
  Q 744.30 475.30 743.93 429.50
  C 743.38 363.59 744.77 297.48 743.75 231.74
  A 1.15 1.14 -79.0 0 0 743.05 230.70
  L 511.69 135.25
  A 3.21 3.21 0.0 0 0 509.23 135.25
  L 276.99 230.87
  A 1.04 1.01 -88.0 0 0 276.46 231.38"
/>
<path stroke="#878788" vector-effect="non-scaling-stroke" d="
  M 230.48 808.91
  L 191.56 809.09
  A 0.72 0.71 -0.4 0 0 190.84 809.81
  L 190.92 827.62
  A 0.63 0.63 0.0 0 0 191.56 828.25
  L 210.43 828.17
  A 1.70 1.69 -1.6 0 1 212.14 829.78
  Q 212.35 834.14 212.20 839.01
  C 212.14 841.20 211.44 842.01 209.49 842.98
  C 190.30 852.48 168.69 842.53 168.20 820.07
  C 167.85 803.79 175.10 791.10 192.18 788.55
  Q 206.10 786.47 218.49 794.73
  A 0.71 0.71 0.0 0 0 219.50 794.51
  L 228.64 779.75
  A 0.94 0.94 0.0 0 0 228.49 778.57
  Q 225.53 775.78 221.27 773.74
  C 204.38 765.68 183.31 765.98 167.73 776.25
  C 147.73 789.44 141.48 815.46 149.31 837.21
  C 157.13 858.94 178.09 868.06 200.43 866.15
  Q 217.50 864.69 230.57 853.05
  A 3.16 3.11 69.4 0 0 231.61 850.71
  L 231.42 809.84
  A 0.94 0.93 -0.0 0 0 230.48 808.91"
/>
<path stroke="#878788" vector-effect="non-scaling-stroke" d="
  M 328.39 770.47
  L 309.25 770.33
  A 1.28 1.28 0.0 0 0 307.96 771.61
  Q 307.98 799.49 308.00 825.00
  Q 308.01 832.40 307.03 835.27
  Q 303.94 844.30 294.45 845.60
  C 285.97 846.77 275.15 846.12 272.09 836.89
  Q 270.30 831.51 270.31 824.50
  Q 270.36 805.50 270.27 770.88
  A 0.42 0.42 0.0 0 0 269.85 770.46
  L 250.27 770.31
  A 0.48 0.48 0.0 0 0 249.79 770.78
  Q 249.61 808.24 249.72 826.50
  Q 249.78 835.55 250.79 840.24
  C 254.27 856.32 266.00 864.70 281.98 866.42
  Q 292.51 867.55 302.08 865.46
  C 318.93 861.77 328.72 847.03 329.08 830.00
  Q 329.48 811.54 329.23 778.50
  Q 329.21 775.00 328.93 770.97
  A 0.54 0.54 0.0 0 0 328.39 770.47"
/>
<path stroke="#878788" vector-effect="non-scaling-stroke" d="
  M 524.48 862.76
  L 505.00 829.01
  A 1.26 1.26 0.0 0 1 505.56 827.24
  C 512.75 823.91 519.18 819.60 521.58 811.55
  Q 525.06 799.84 520.22 788.94
  C 514.04 775.03 499.47 770.24 485.50 770.34
  Q 464.79 770.48 446.79 770.22
  A 0.67 0.67 0.0 0 0 446.11 770.89
  L 446.53 863.08
  A 0.17 0.17 0.0 0 0 446.70 863.25
  L 466.97 863.16
  A 0.58 0.57 -0.5 0 0 467.54 862.59
  L 467.40 832.68
  A 0.68 0.68 0.0 0 1 468.08 832.00
  L 482.42 831.94
  A 2.90 2.89 -15.2 0 1 484.94 833.38
  L 501.70 862.41
  A 1.64 1.63 74.5 0 0 503.13 863.23
  L 524.27 863.14
  A 0.25 0.25 0.0 0 0 524.48 862.76"
/>
<path stroke="#878788" vector-effect="non-scaling-stroke" d="
  M 541.00 770.66
  L 541.00 862.82
  A 0.23 0.23 0.0 0 0 541.23 863.05
  L 581.19 863.05
  A 45.85 43.53 -0.0 0 0 627.04 819.52
  L 627.04 813.96
  A 45.85 43.53 0.0 0 0 581.19 770.43
  L 541.23 770.43
  A 0.23 0.23 0.0 0 0 541.00 770.66"
/>
<path stroke="#878788" vector-effect="non-scaling-stroke" d="
  M 335.90 863.32
  L 356.77 863.28
  A 0.73 0.73 0.0 0 0 357.45 862.81
  L 363.53 847.15
  A 1.87 1.86 10.5 0 1 365.27 845.96
  L 403.50 845.92
  A 1.80 1.80 0.0 0 1 405.18 847.06
  L 411.27 862.70
  A 0.87 0.86 -10.3 0 0 412.09 863.26
  L 434.37 863.35
  A 0.28 0.28 0.0 0 0 434.63 862.96
  L 396.37 771.11
  A 1.16 1.16 0.0 0 0 395.30 770.40
  L 374.66 770.47
  A 1.07 1.06 11.1 0 0 373.68 771.13
  L 335.61 862.89
  A 0.31 0.31 0.0 0 0 335.90 863.32"
/>
<path stroke="#878788" vector-effect="non-scaling-stroke" d="
  M 663.95 771.12
  A 0.64 0.64 0.0 0 0 663.31 770.48
  L 643.63 770.48
  A 0.64 0.64 0.0 0 0 642.99 771.12
  L 642.99 862.56
  A 0.64 0.64 0.0 0 0 643.63 863.20
  L 663.31 863.20
  A 0.64 0.64 0.0 0 0 663.95 862.56
  L 663.95 771.12"
/>
<path stroke="#878788" vector-effect="non-scaling-stroke" d="
  M 715.54 770.53
  A 0.35 0.35 0.0 0 0 715.22 770.75
  L 677.27 862.71
  A 0.35 0.35 0.0 0 0 677.60 863.20
  L 698.32 863.11
  A 0.35 0.35 0.0 0 0 698.64 862.89
  L 705.53 846.18
  A 0.35 0.35 0.0 0 1 705.85 845.96
  L 745.87 845.78
  A 0.35 0.35 0.0 0 1 746.20 846.00
  L 752.79 863.08
  A 0.35 0.35 0.0 0 0 753.12 863.30
  L 775.41 863.19
  A 0.35 0.35 0.0 0 0 775.73 862.71
  L 737.82 770.65
  A 0.35 0.35 0.0 0 0 737.49 770.43
  L 715.54 770.53"
/>
<path stroke="#878788" vector-effect="non-scaling-stroke" d="
  M 821.65 822.61
  Q 833.01 838.29 850.15 862.62
  A 1.44 1.43 72.2 0 0 851.32 863.23
  L 870.96 863.14
  A 0.56 0.56 0.0 0 0 871.52 862.58
  L 871.10 770.69
  A 0.30 0.29 -90.0 0 0 870.81 770.39
  L 850.84 770.48
  A 0.60 0.59 -0.5 0 0 850.25 771.07
  L 850.51 826.89
  A 0.67 0.66 27.2 0 1 849.30 827.27
  Q 842.14 817.19 837.67 811.01
  Q 826.31 795.33 809.17 771.00
  A 1.44 1.43 72.2 0 0 808.00 770.39
  L 788.36 770.48
  A 0.56 0.56 0.0 0 0 787.80 771.04
  L 788.22 862.93
  A 0.30 0.29 90.0 0 0 788.51 863.23
  L 808.48 863.14
  A 0.60 0.59 -0.5 0 0 809.07 862.55
  L 808.81 806.73
  A 0.67 0.66 27.2 0 1 810.02 806.35
  Q 817.18 816.43 821.65 822.61"
/>
<path stroke="#878788" vector-effect="non-scaling-stroke" d="
  M 424.23 585.60
  Q 424.99 582.85 424.95 579.49
  C 424.46 541.69 425.39 505.76 424.64 464.28
  Q 424.46 454.33 424.25 451.49
  A 2.55 2.54 -76.1 0 0 423.08 449.54
  Q 409.63 440.90 398.86 432.39
  Q 390.77 426.00 385.91 420.68
  Q 383.73 418.29 382.65 415.41
  Q 373.22 390.28 369.68 362.62
  A 0.63 0.63 0.0 0 1 370.55 361.96
  L 461.34 400.52
  A 1.52 1.52 0.0 0 1 462.26 401.93
  L 460.63 615.92
  A 2.20 2.19 17.4 0 0 461.59 617.75
  L 509.50 650.63
  A 2.00 2.00 0.0 0 0 511.01 650.94
  Q 512.58 650.64 514.22 649.48
  Q 534.26 635.36 556.37 619.25
  A 3.84 3.83 -18.1 0 0 557.95 616.15
  Q 558.10 506.48 556.60 402.65
  A 1.76 1.75 79.1 0 1 557.72 400.98
  Q 571.38 395.60 573.46 394.72
  Q 614.20 377.43 647.41 362.77
  A 0.71 0.71 0.0 0 1 648.40 363.48
  Q 646.93 381.35 642.24 398.52
  Q 639.68 407.90 636.24 415.50
  C 632.56 423.63 625.46 428.76 618.07 434.06
  Q 607.32 441.76 595.70 448.95
  A 2.53 2.52 -15.6 0 0 594.50 451.06
  C 594.21 473.86 594.03 500.74 594.44 527.98
  Q 594.97 563.43 594.66 586.82
  A 0.35 0.35 0.0 0 0 595.24 587.09
  Q 626.49 561.11 650.35 528.88
  C 670.14 502.15 683.98 471.21 685.59 437.77
  C 686.31 422.76 685.40 404.68 685.37 387.40
  Q 685.29 337.13 685.60 291.37
  A 0.67 0.67 0.0 0 0 684.67 290.75
  L 535.66 354.72
  A 1.87 1.85 -12.0 0 0 534.53 356.44
  L 535.15 493.09
  A 3.32 3.30 73.2 0 1 533.69 495.84
  L 510.78 511.22
  A 1.61 1.61 0.0 0 1 508.97 511.21
  L 485.07 494.81
  A 1.77 1.75 -72.5 0 1 484.31 493.34
  C 484.57 468.15 484.29 439.23 484.44 404.90
  Q 484.52 385.53 483.86 356.27
  A 1.90 1.90 0.0 0 0 482.71 354.57
  L 335.26 290.83
  A 0.64 0.64 0.0 0 0 334.37 291.42
  Q 334.41 404.76 334.33 411.24
  Q 333.99 439.18 335.64 450.26
  C 340.27 481.33 354.49 509.36 374.08 534.20
  Q 395.99 561.98 423.83 585.73
  A 0.25 0.25 0.0 0 0 424.23 585.60"
/>
<path stroke="#878788" vector-effect="non-scaling-stroke" d="
  M 467.61 790.48
  L 467.51 810.84
  A 1.30 1.30 0.0 0 0 468.80 812.15
  L 489.73 812.26
  A 11.75 10.61 0.3 0 0 501.54 801.71
  L 501.54 799.97
  A 11.75 10.61 0.3 0 0 489.85 789.30
  L 468.92 789.19
  A 1.30 1.30 0.0 0 0 467.61 790.48"
/>
<path stroke="#878788" vector-effect="non-scaling-stroke" d="
  M 562.78 791.26
  L 562.60 842.56
  A 1.28 1.28 0.0 0 0 563.88 843.84
  L 578.92 843.89
  A 26.40 25.50 0.2 0 0 605.40 818.48
  L 605.41 815.62
  A 26.40 25.50 0.2 0 0 579.10 790.03
  L 564.06 789.98
  A 1.28 1.28 0.0 0 0 562.78 791.26"
/>
<path stroke="#878788" vector-effect="non-scaling-stroke" d="
  M 385.59 794.15
  A 0.73 0.73 0.0 0 0 384.23 794.14
  L 371.07 826.04
  A 0.73 0.73 0.0 0 0 371.75 827.04
  L 397.20 826.92
  A 0.73 0.73 0.0 0 0 397.88 825.93
  L 385.59 794.15"
/>
<path stroke="#878788" vector-effect="non-scaling-stroke" d="
  M 712.59 825.82
  A 0.77 0.77 0.0 0 0 713.29 826.89
  L 738.77 827.11
  A 0.77 0.77 0.0 0 0 739.49 826.06
  L 727.03 794.40
  A 0.77 0.77 0.0 0 0 725.60 794.38
  L 712.59 825.82"
/>
</g>
<path fill="#ffffff" d="
  M 1024.00 0.00
  L 1024.00 1024.00
  L 0.00 1024.00
  L 0.00 0.00
  L 1024.00 0.00
  Z
  M 276.46 231.38
  Q 275.92 232.57 275.91 234.50
  Q 275.59 303.26 276.06 388.01
  C 276.15 405.36 275.46 424.34 276.32 439.99
  C 278.77 485.13 296.22 526.70 322.96 562.58
  Q 350.50 599.52 387.39 631.40
  Q 419.73 659.35 456.30 683.95
  Q 464.15 689.22 467.54 691.22
  Q 497.42 708.77 506.21 713.79
  Q 508.82 715.28 509.64 715.65
  A 2.20 2.19 41.8 0 0 511.66 715.54
  C 531.58 703.87 555.38 690.43 576.05 675.71
  Q 619.65 644.67 658.81 606.43
  C 685.40 580.45 708.63 550.94 724.42 517.47
  Q 744.30 475.30 743.93 429.50
  C 743.38 363.59 744.77 297.48 743.75 231.74
  A 1.15 1.14 -79.0 0 0 743.05 230.70
  L 511.69 135.25
  A 3.21 3.21 0.0 0 0 509.23 135.25
  L 276.99 230.87
  A 1.04 1.01 -88.0 0 0 276.46 231.38
  Z
  M 230.48 808.91
  L 191.56 809.09
  A 0.72 0.71 -0.4 0 0 190.84 809.81
  L 190.92 827.62
  A 0.63 0.63 0.0 0 0 191.56 828.25
  L 210.43 828.17
  A 1.70 1.69 -1.6 0 1 212.14 829.78
  Q 212.35 834.14 212.20 839.01
  C 212.14 841.20 211.44 842.01 209.49 842.98
  C 190.30 852.48 168.69 842.53 168.20 820.07
  C 167.85 803.79 175.10 791.10 192.18 788.55
  Q 206.10 786.47 218.49 794.73
  A 0.71 0.71 0.0 0 0 219.50 794.51
  L 228.64 779.75
  A 0.94 0.94 0.0 0 0 228.49 778.57
  Q 225.53 775.78 221.27 773.74
  C 204.38 765.68 183.31 765.98 167.73 776.25
  C 147.73 789.44 141.48 815.46 149.31 837.21
  C 157.13 858.94 178.09 868.06 200.43 866.15
  Q 217.50 864.69 230.57 853.05
  A 3.16 3.11 69.4 0 0 231.61 850.71
  L 231.42 809.84
  A 0.94 0.93 -0.0 0 0 230.48 808.91
  Z
  M 328.39 770.47
  L 309.25 770.33
  A 1.28 1.28 0.0 0 0 307.96 771.61
  Q 307.98 799.49 308.00 825.00
  Q 308.01 832.40 307.03 835.27
  Q 303.94 844.30 294.45 845.60
  C 285.97 846.77 275.15 846.12 272.09 836.89
  Q 270.30 831.51 270.31 824.50
  Q 270.36 805.50 270.27 770.88
  A 0.42 0.42 0.0 0 0 269.85 770.46
  L 250.27 770.31
  A 0.48 0.48 0.0 0 0 249.79 770.78
  Q 249.61 808.24 249.72 826.50
  Q 249.78 835.55 250.79 840.24
  C 254.27 856.32 266.00 864.70 281.98 866.42
  Q 292.51 867.55 302.08 865.46
  C 318.93 861.77 328.72 847.03 329.08 830.00
  Q 329.48 811.54 329.23 778.50
  Q 329.21 775.00 328.93 770.97
  A 0.54 0.54 0.0 0 0 328.39 770.47
  Z
  M 524.48 862.76
  L 505.00 829.01
  A 1.26 1.26 0.0 0 1 505.56 827.24
  C 512.75 823.91 519.18 819.60 521.58 811.55
  Q 525.06 799.84 520.22 788.94
  C 514.04 775.03 499.47 770.24 485.50 770.34
  Q 464.79 770.48 446.79 770.22
  A 0.67 0.67 0.0 0 0 446.11 770.89
  L 446.53 863.08
  A 0.17 0.17 0.0 0 0 446.70 863.25
  L 466.97 863.16
  A 0.58 0.57 -0.5 0 0 467.54 862.59
  L 467.40 832.68
  A 0.68 0.68 0.0 0 1 468.08 832.00
  L 482.42 831.94
  A 2.90 2.89 -15.2 0 1 484.94 833.38
  L 501.70 862.41
  A 1.64 1.63 74.5 0 0 503.13 863.23
  L 524.27 863.14
  A 0.25 0.25 0.0 0 0 524.48 862.76
  Z
  M 541.00 770.66
  L 541.00 862.82
  A 0.23 0.23 0.0 0 0 541.23 863.05
  L 581.19 863.05
  A 45.85 43.53 -0.0 0 0 627.04 819.52
  L 627.04 813.96
  A 45.85 43.53 0.0 0 0 581.19 770.43
  L 541.23 770.43
  A 0.23 0.23 0.0 0 0 541.00 770.66
  Z
  M 335.90 863.32
  L 356.77 863.28
  A 0.73 0.73 0.0 0 0 357.45 862.81
  L 363.53 847.15
  A 1.87 1.86 10.5 0 1 365.27 845.96
  L 403.50 845.92
  A 1.80 1.80 0.0 0 1 405.18 847.06
  L 411.27 862.70
  A 0.87 0.86 -10.3 0 0 412.09 863.26
  L 434.37 863.35
  A 0.28 0.28 0.0 0 0 434.63 862.96
  L 396.37 771.11
  A 1.16 1.16 0.0 0 0 395.30 770.40
  L 374.66 770.47
  A 1.07 1.06 11.1 0 0 373.68 771.13
  L 335.61 862.89
  A 0.31 0.31 0.0 0 0 335.90 863.32
  Z
  M 663.95 771.12
  A 0.64 0.64 0.0 0 0 663.31 770.48
  L 643.63 770.48
  A 0.64 0.64 0.0 0 0 642.99 771.12
  L 642.99 862.56
  A 0.64 0.64 0.0 0 0 643.63 863.20
  L 663.31 863.20
  A 0.64 0.64 0.0 0 0 663.95 862.56
  L 663.95 771.12
  Z
  M 715.54 770.53
  A 0.35 0.35 0.0 0 0 715.22 770.75
  L 677.27 862.71
  A 0.35 0.35 0.0 0 0 677.60 863.20
  L 698.32 863.11
  A 0.35 0.35 0.0 0 0 698.64 862.89
  L 705.53 846.18
  A 0.35 0.35 0.0 0 1 705.85 845.96
  L 745.87 845.78
  A 0.35 0.35 0.0 0 1 746.20 846.00
  L 752.79 863.08
  A 0.35 0.35 0.0 0 0 753.12 863.30
  L 775.41 863.19
  A 0.35 0.35 0.0 0 0 775.73 862.71
  L 737.82 770.65
  A 0.35 0.35 0.0 0 0 737.49 770.43
  L 715.54 770.53
  Z
  M 821.65 822.61
  Q 833.01 838.29 850.15 862.62
  A 1.44 1.43 72.2 0 0 851.32 863.23
  L 870.96 863.14
  A 0.56 0.56 0.0 0 0 871.52 862.58
  L 871.10 770.69
  A 0.30 0.29 -90.0 0 0 870.81 770.39
  L 850.84 770.48
  A 0.60 0.59 -0.5 0 0 850.25 771.07
  L 850.51 826.89
  A 0.67 0.66 27.2 0 1 849.30 827.27
  Q 842.14 817.19 837.67 811.01
  Q 826.31 795.33 809.17 771.00
  A 1.44 1.43 72.2 0 0 808.00 770.39
  L 788.36 770.48
  A 0.56 0.56 0.0 0 0 787.80 771.04
  L 788.22 862.93
  A 0.30 0.29 90.0 0 0 788.51 863.23
  L 808.48 863.14
  A 0.60 0.59 -0.5 0 0 809.07 862.55
  L 808.81 806.73
  A 0.67 0.66 27.2 0 1 810.02 806.35
  Q 817.18 816.43 821.65 822.61
  Z"
/>
<path fill="#0e0e10" d="
  M 276.99 230.87
  L 509.23 135.25
  A 3.21 3.21 0.0 0 1 511.69 135.25
  L 743.05 230.70
  A 1.15 1.14 -79.0 0 1 743.75 231.74
  C 744.77 297.48 743.38 363.59 743.93 429.50
  Q 744.30 475.30 724.42 517.47
  C 708.63 550.94 685.40 580.45 658.81 606.43
  Q 619.65 644.67 576.05 675.71
  C 555.38 690.43 531.58 703.87 511.66 715.54
  A 2.20 2.19 41.8 0 1 509.64 715.65
  Q 508.82 715.28 506.21 713.79
  Q 497.42 708.77 467.54 691.22
  Q 464.15 689.22 456.30 683.95
  Q 419.73 659.35 387.39 631.40
  Q 350.50 599.52 322.96 562.58
  C 296.22 526.70 278.77 485.13 276.32 439.99
  C 275.46 424.34 276.15 405.36 276.06 388.01
  Q 275.59 303.26 275.91 234.50
  Q 275.92 232.57 276.46 231.38
  A 1.04 1.01 -88.0 0 1 276.99 230.87
  Z
  M 424.23 585.60
  Q 424.99 582.85 424.95 579.49
  C 424.46 541.69 425.39 505.76 424.64 464.28
  Q 424.46 454.33 424.25 451.49
  A 2.55 2.54 -76.1 0 0 423.08 449.54
  Q 409.63 440.90 398.86 432.39
  Q 390.77 426.00 385.91 420.68
  Q 383.73 418.29 382.65 415.41
  Q 373.22 390.28 369.68 362.62
  A 0.63 0.63 0.0 0 1 370.55 361.96
  L 461.34 400.52
  A 1.52 1.52 0.0 0 1 462.26 401.93
  L 460.63 615.92
  A 2.20 2.19 17.4 0 0 461.59 617.75
  L 509.50 650.63
  A 2.00 2.00 0.0 0 0 511.01 650.94
  Q 512.58 650.64 514.22 649.48
  Q 534.26 635.36 556.37 619.25
  A 3.84 3.83 -18.1 0 0 557.95 616.15
  Q 558.10 506.48 556.60 402.65
  A 1.76 1.75 79.1 0 1 557.72 400.98
  Q 571.38 395.60 573.46 394.72
  Q 614.20 377.43 647.41 362.77
  A 0.71 0.71 0.0 0 1 648.40 363.48
  Q 646.93 381.35 642.24 398.52
  Q 639.68 407.90 636.24 415.50
  C 632.56 423.63 625.46 428.76 618.07 434.06
  Q 607.32 441.76 595.70 448.95
  A 2.53 2.52 -15.6 0 0 594.50 451.06
  C 594.21 473.86 594.03 500.74 594.44 527.98
  Q 594.97 563.43 594.66 586.82
  A 0.35 0.35 0.0 0 0 595.24 587.09
  Q 626.49 561.11 650.35 528.88
  C 670.14 502.15 683.98 471.21 685.59 437.77
  C 686.31 422.76 685.40 404.68 685.37 387.40
  Q 685.29 337.13 685.60 291.37
  A 0.67 0.67 0.0 0 0 684.67 290.75
  L 535.66 354.72
  A 1.87 1.85 -12.0 0 0 534.53 356.44
  L 535.15 493.09
  A 3.32 3.30 73.2 0 1 533.69 495.84
  L 510.78 511.22
  A 1.61 1.61 0.0 0 1 508.97 511.21
  L 485.07 494.81
  A 1.77 1.75 -72.5 0 1 484.31 493.34
  C 484.57 468.15 484.29 439.23 484.44 404.90
  Q 484.52 385.53 483.86 356.27
  A 1.90 1.90 0.0 0 0 482.71 354.57
  L 335.26 290.83
  A 0.64 0.64 0.0 0 0 334.37 291.42
  Q 334.41 404.76 334.33 411.24
  Q 333.99 439.18 335.64 450.26
  C 340.27 481.33 354.49 509.36 374.08 534.20
  Q 395.99 561.98 423.83 585.73
  A 0.25 0.25 0.0 0 0 424.23 585.60
  Z"
/>
<path fill="#ffffff" d="
  M 424.23 585.60
  A 0.25 0.25 0.0 0 1 423.83 585.73
  Q 395.99 561.98 374.08 534.20
  C 354.49 509.36 340.27 481.33 335.64 450.26
  Q 333.99 439.18 334.33 411.24
  Q 334.41 404.76 334.37 291.42
  A 0.64 0.64 0.0 0 1 335.26 290.83
  L 482.71 354.57
  A 1.90 1.90 0.0 0 1 483.86 356.27
  Q 484.52 385.53 484.44 404.90
  C 484.29 439.23 484.57 468.15 484.31 493.34
  A 1.77 1.75 -72.5 0 0 485.07 494.81
  L 508.97 511.21
  A 1.61 1.61 0.0 0 0 510.78 511.22
  L 533.69 495.84
  A 3.32 3.30 73.2 0 0 535.15 493.09
  L 534.53 356.44
  A 1.87 1.85 -12.0 0 1 535.66 354.72
  L 684.67 290.75
  A 0.67 0.67 0.0 0 1 685.60 291.37
  Q 685.29 337.13 685.37 387.40
  C 685.40 404.68 686.31 422.76 685.59 437.77
  C 683.98 471.21 670.14 502.15 650.35 528.88
  Q 626.49 561.11 595.24 587.09
  A 0.35 0.35 0.0 0 1 594.66 586.82
  Q 594.97 563.43 594.44 527.98
  C 594.03 500.74 594.21 473.86 594.50 451.06
  A 2.53 2.52 -15.6 0 1 595.70 448.95
  Q 607.32 441.76 618.07 434.06
  C 625.46 428.76 632.56 423.63 636.24 415.50
  Q 639.68 407.90 642.24 398.52
  Q 646.93 381.35 648.40 363.48
  A 0.71 0.71 0.0 0 0 647.41 362.77
  Q 614.20 377.43 573.46 394.72
  Q 571.38 395.60 557.72 400.98
  A 1.76 1.75 79.1 0 0 556.60 402.65
  Q 558.10 506.48 557.95 616.15
  A 3.84 3.83 -18.1 0 1 556.37 619.25
  Q 534.26 635.36 514.22 649.48
  Q 512.58 650.64 511.01 650.94
  A 2.00 2.00 0.0 0 1 509.50 650.63
  L 461.59 617.75
  A 2.20 2.19 17.4 0 1 460.63 615.92
  L 462.26 401.93
  A 1.52 1.52 0.0 0 0 461.34 400.52
  L 370.55 361.96
  A 0.63 0.63 0.0 0 0 369.68 362.62
  Q 373.22 390.28 382.65 415.41
  Q 383.73 418.29 385.91 420.68
  Q 390.77 426.00 398.86 432.39
  Q 409.63 440.90 423.08 449.54
  A 2.55 2.54 -76.1 0 1 424.25 451.49
  Q 424.46 454.33 424.64 464.28
  C 425.39 505.76 424.46 541.69 424.95 579.49
  Q 424.99 582.85 424.23 585.60
  Z"
/>
<path fill="#0e0e10" d="
  M 231.42 809.84
  L 231.61 850.71
  A 3.16 3.11 69.4 0 1 230.57 853.05
  Q 217.50 864.69 200.43 866.15
  C 178.09 868.06 157.13 858.94 149.31 837.21
  C 141.48 815.46 147.73 789.44 167.73 776.25
  C 183.31 765.98 204.38 765.68 221.27 773.74
  Q 225.53 775.78 228.49 778.57
  A 0.94 0.94 0.0 0 1 228.64 779.75
  L 219.50 794.51
  A 0.71 0.71 0.0 0 1 218.49 794.73
  Q 206.10 786.47 192.18 788.55
  C 175.10 791.10 167.85 803.79 168.20 820.07
  C 168.69 842.53 190.30 852.48 209.49 842.98
  C 211.44 842.01 212.14 841.20 212.20 839.01
  Q 212.35 834.14 212.14 829.78
  A 1.70 1.69 -1.6 0 0 210.43 828.17
  L 191.56 828.25
  A 0.63 0.63 0.0 0 1 190.92 827.62
  L 190.84 809.81
  A 0.72 0.71 -0.4 0 1 191.56 809.09
  L 230.48 808.91
  A 0.94 0.93 -0.0 0 1 231.42 809.84
  Z"
/>
<path fill="#0e0e10" d="
  M 328.39 770.47
  A 0.54 0.54 0.0 0 1 328.93 770.97
  Q 329.21 775.00 329.23 778.50
  Q 329.48 811.54 329.08 830.00
  C 328.72 847.03 318.93 861.77 302.08 865.46
  Q 292.51 867.55 281.98 866.42
  C 266.00 864.70 254.27 856.32 250.79 840.24
  Q 249.78 835.55 249.72 826.50
  Q 249.61 808.24 249.79 770.78
  A 0.48 0.48 0.0 0 1 250.27 770.31
  L 269.85 770.46
  A 0.42 0.42 0.0 0 1 270.27 770.88
  Q 270.36 805.50 270.31 824.50
  Q 270.30 831.51 272.09 836.89
  C 275.15 846.12 285.97 846.77 294.45 845.60
  Q 303.94 844.30 307.03 835.27
  Q 308.01 832.40 308.00 825.00
  Q 307.98 799.49 307.96 771.61
  A 1.28 1.28 0.0 0 1 309.25 770.33
  L 328.39 770.47
  Z"
/>
<path fill="#0e0e10" d="
  M 524.48 862.76
  A 0.25 0.25 0.0 0 1 524.27 863.14
  L 503.13 863.23
  A 1.64 1.63 74.5 0 1 501.70 862.41
  L 484.94 833.38
  A 2.90 2.89 -15.2 0 0 482.42 831.94
  L 468.08 832.00
  A 0.68 0.68 0.0 0 0 467.40 832.68
  L 467.54 862.59
  A 0.58 0.57 -0.5 0 1 466.97 863.16
  L 446.70 863.25
  A 0.17 0.17 0.0 0 1 446.53 863.08
  L 446.11 770.89
  A 0.67 0.67 0.0 0 1 446.79 770.22
  Q 464.79 770.48 485.50 770.34
  C 499.47 770.24 514.04 775.03 520.22 788.94
  Q 525.06 799.84 521.58 811.55
  C 519.18 819.60 512.75 823.91 505.56 827.24
  A 1.26 1.26 0.0 0 0 505.00 829.01
  L 524.48 862.76
  Z
  M 467.61 790.48
  L 467.51 810.84
  A 1.30 1.30 0.0 0 0 468.80 812.15
  L 489.73 812.26
  A 11.75 10.61 0.3 0 0 501.54 801.71
  L 501.54 799.97
  A 11.75 10.61 0.3 0 0 489.85 789.30
  L 468.92 789.19
  A 1.30 1.30 0.0 0 0 467.61 790.48
  Z"
/>
<path fill="#0e0e10" d="
  M 541.00 770.66
  A 0.23 0.23 0.0 0 1 541.23 770.43
  L 581.19 770.43
  A 45.85 43.53 -0.0 0 1 627.04 813.96
  L 627.04 819.52
  A 45.85 43.53 -0.0 0 1 581.19 863.05
  L 541.23 863.05
  A 0.23 0.23 0.0 0 1 541.00 862.82
  L 541.00 770.66
  Z
  M 562.78 791.26
  L 562.60 842.56
  A 1.28 1.28 0.0 0 0 563.88 843.84
  L 578.92 843.89
  A 26.40 25.50 0.2 0 0 605.40 818.48
  L 605.41 815.62
  A 26.40 25.50 0.2 0 0 579.10 790.03
  L 564.06 789.98
  A 1.28 1.28 0.0 0 0 562.78 791.26
  Z"
/>
<path fill="#0e0e10" d="
  M 335.90 863.32
  A 0.31 0.31 0.0 0 1 335.61 862.89
  L 373.68 771.13
  A 1.07 1.06 11.1 0 1 374.66 770.47
  L 395.30 770.40
  A 1.16 1.16 0.0 0 1 396.37 771.11
  L 434.63 862.96
  A 0.28 0.28 0.0 0 1 434.37 863.35
  L 412.09 863.26
  A 0.87 0.86 -10.3 0 1 411.27 862.70
  L 405.18 847.06
  A 1.80 1.80 0.0 0 0 403.50 845.92
  L 365.27 845.96
  A 1.87 1.86 10.5 0 0 363.53 847.15
  L 357.45 862.81
  A 0.73 0.73 0.0 0 1 356.77 863.28
  L 335.90 863.32
  Z
  M 385.59 794.15
  A 0.73 0.73 0.0 0 0 384.23 794.14
  L 371.07 826.04
  A 0.73 0.73 0.0 0 0 371.75 827.04
  L 397.20 826.92
  A 0.73 0.73 0.0 0 0 397.88 825.93
  L 385.59 794.15
  Z"
/>
<rect fill="#0e0e10" x="642.99" y="770.48" width="20.96" height="92.72" rx="0.64"/>
<path fill="#0e0e10" d="
  M 715.54 770.53
  L 737.49 770.43
  A 0.35 0.35 0.0 0 1 737.82 770.65
  L 775.73 862.71
  A 0.35 0.35 0.0 0 1 775.41 863.19
  L 753.12 863.30
  A 0.35 0.35 0.0 0 1 752.79 863.08
  L 746.20 846.00
  A 0.35 0.35 0.0 0 0 745.87 845.78
  L 705.85 845.96
  A 0.35 0.35 0.0 0 0 705.53 846.18
  L 698.64 862.89
  A 0.35 0.35 0.0 0 1 698.32 863.11
  L 677.60 863.20
  A 0.35 0.35 0.0 0 1 677.27 862.71
  L 715.22 770.75
  A 0.35 0.35 0.0 0 1 715.54 770.53
  Z
  M 712.59 825.82
  A 0.77 0.77 0.0 0 0 713.29 826.89
  L 738.77 827.11
  A 0.77 0.77 0.0 0 0 739.49 826.06
  L 727.03 794.40
  A 0.77 0.77 0.0 0 0 725.60 794.38
  L 712.59 825.82
  Z"
/>
<path fill="#0e0e10" d="
  M 821.65 822.61
  Q 817.18 816.43 810.02 806.35
  A 0.67 0.66 27.2 0 0 808.81 806.73
  L 809.07 862.55
  A 0.60 0.59 -0.5 0 1 808.48 863.14
  L 788.51 863.23
  A 0.30 0.29 -90.0 0 1 788.22 862.93
  L 787.80 771.04
  A 0.56 0.56 0.0 0 1 788.36 770.48
  L 808.00 770.39
  A 1.44 1.43 72.2 0 1 809.17 771.00
  Q 826.31 795.33 837.67 811.01
  Q 842.14 817.19 849.30 827.27
  A 0.67 0.66 27.2 0 0 850.51 826.89
  L 850.25 771.07
  A 0.60 0.59 -0.5 0 1 850.84 770.48
  L 870.81 770.39
  A 0.30 0.29 90.0 0 1 871.10 770.69
  L 871.52 862.58
  A 0.56 0.56 0.0 0 1 870.96 863.14
  L 851.32 863.23
  A 1.44 1.43 72.2 0 1 850.15 862.62
  Q 833.01 838.29 821.65 822.61
  Z"
/>
<path fill="#ffffff" d="
  M 467.61 790.48
  A 1.30 1.30 0.0 0 1 468.92 789.19
  L 489.85 789.30
  A 11.75 10.61 0.3 0 1 501.54 799.97
  L 501.54 801.71
  A 11.75 10.61 0.3 0 1 489.73 812.26
  L 468.80 812.15
  A 1.30 1.30 0.0 0 1 467.51 810.84
  L 467.61 790.48
  Z"
/>
<path fill="#ffffff" d="
  M 562.78 791.26
  A 1.28 1.28 0.0 0 1 564.06 789.98
  L 579.10 790.03
  A 26.40 25.50 0.2 0 1 605.41 815.62
  L 605.40 818.48
  A 26.40 25.50 0.2 0 1 578.92 843.89
  L 563.88 843.84
  A 1.28 1.28 0.0 0 1 562.60 842.56
  L 562.78 791.26
  Z"
/>
<path fill="#ffffff" d="
  M 385.59 794.15
  L 397.88 825.93
  A 0.73 0.73 0.0 0 1 397.20 826.92
  L 371.75 827.04
  A 0.73 0.73 0.0 0 1 371.07 826.04
  L 384.23 794.14
  A 0.73 0.73 0.0 0 1 385.59 794.15
  Z"
/>
<path fill="#ffffff" d="
  M 712.59 825.82
  L 725.60 794.38
  A 0.77 0.77 0.0 0 1 727.03 794.40
  L 739.49 826.06
  A 0.77 0.77 0.0 0 1 738.77 827.11
  L 713.29 826.89
  A 0.77 0.77 0.0 0 1 712.59 825.82
  Z"
/>
</svg>
