<?xml version="1.0" encoding="UTF-8" standalone="no"?>
<!DOCTYPE svg PUBLIC "-//W3C//DTD SVG 1.1//EN" "http://www.w3.org/Graphics/SVG/1.1/DTD/svg11.dtd">
<svg xmlns="http://www.w3.org/2000/svg" version="1.1" viewBox="0.00 0.00 779.00 120.00">
<g stroke-width="2.00" fill="none" stroke-linecap="butt">
<path stroke="#868687" vector-effect="non-scaling-stroke" d="
  M 110.74 45.98
  L 71.44 45.98
  A 0.58 0.58 0.0 0 0 70.86 46.56
  L 70.86 64.67
  A 0.56 0.55 90.0 0 0 71.41 65.23
  L 90.74 65.23
  A 1.49 1.48 -0.0 0 1 92.23 66.71
  L 92.23 76.71
  A 2.77 2.77 0.0 0 1 90.91 79.07
  C 80.14 85.77 65.12 85.27 55.94 76.22
  Q 49.08 69.47 48.27 58.37
  C 47.67 50.10 49.51 39.87 55.67 33.70
  C 67.36 21.97 85.52 23.16 98.51 31.78
  A 0.66 0.66 0.0 0 0 99.44 31.58
  L 108.61 16.78
  A 1.07 1.06 -54.3 0 0 108.39 15.40
  Q 102.08 10.18 93.60 7.68
  C 64.43 -0.92 33.75 12.62 27.26 43.98
  C 21.45 72.04 36.64 99.44 66.57 102.87
  C 83.41 104.80 98.34 101.12 110.76 89.83
  A 2.38 2.38 0.0 0 0 111.55 88.06
  L 111.55 46.79
  A 0.81 0.81 0.0 0 0 110.74 45.98"
/>
<path stroke="#868687" vector-effect="non-scaling-stroke" d="
  M 208.30 7.41
  L 188.95 7.41
  A 0.97 0.97 0.0 0 0 187.98 8.38
  Q 187.94 35.77 188.04 60.00
  C 188.07 68.20 187.99 75.50 181.46 80.01
  C 176.26 83.59 167.09 83.70 161.00 82.05
  C 152.79 79.83 150.52 72.24 150.44 64.49
  Q 150.23 42.96 150.35 7.93
  A 0.55 0.54 -0.0 0 0 149.80 7.39
  L 130.15 7.39
  A 0.40 0.39 -0.0 0 0 129.75 7.78
  Q 129.78 22.63 129.66 57.00
  Q 129.62 69.97 130.45 75.09
  C 134.28 98.83 154.23 105.23 175.52 103.51
  Q 191.02 102.26 199.89 92.08
  C 205.75 85.35 208.76 76.54 209.02 67.98
  Q 209.49 52.08 209.23 17.51
  Q 209.17 10.27 208.89 7.93
  A 0.59 0.59 0.0 0 0 208.30 7.41"
/>
<path stroke="#868687" vector-effect="non-scaling-stroke" d="
  M 404.34 99.50
  L 384.89 65.81
  A 1.03 1.03 0.0 0 1 385.34 64.36
  C 392.21 61.08 397.98 57.43 400.99 50.30
  C 403.70 43.90 403.69 35.36 401.16 28.25
  Q 396.23 14.44 381.35 9.66
  Q 374.68 7.53 369.98 7.50
  Q 345.34 7.34 326.90 7.30
  A 0.58 0.57 0.0 0 0 326.32 7.87
  L 326.32 99.96
  A 0.24 0.24 0.0 0 0 326.56 100.20
  L 346.93 100.20
  A 0.54 0.53 -0.0 0 0 347.47 99.67
  L 347.47 69.76
  A 0.76 0.76 0.0 0 1 348.23 69.00
  L 362.89 69.00
  A 2.16 2.15 -14.9 0 1 364.76 70.08
  L 381.41 98.91
  A 2.54 2.53 -14.9 0 0 383.61 100.18
  L 403.95 100.18
  A 0.45 0.45 0.0 0 0 404.34 99.50"
/>
<path stroke="#868687" vector-effect="non-scaling-stroke" d="
  M 421.62 100.27
  Q 432.21 100.13 450.58 100.27
  Q 466.45 100.39 472.54 98.70
  C 496.83 91.96 508.34 72.44 507.02 47.93
  C 505.62 21.86 483.71 7.96 459.47 7.52
  Q 452.06 7.39 421.46 7.48
  A 0.46 0.46 0.0 0 0 421.00 7.94
  L 421.00 99.65
  A 0.62 0.62 0.0 0 0 421.62 100.27"
/>
<path stroke="#868687" vector-effect="non-scaling-stroke" d="
  M 701.67 59.59
  Q 711.07 72.30 730.00 99.41
  A 1.78 1.78 0.0 0 0 731.46 100.18
  L 750.88 100.18
  A 0.43 0.43 0.0 0 0 751.31 99.75
  L 751.31 7.90
  A 0.46 0.46 0.0 0 0 750.85 7.44
  L 730.76 7.44
  A 0.38 0.38 0.0 0 0 730.38 7.82
  L 730.38 63.89
  A 0.46 0.46 0.0 0 1 729.63 64.25
  Q 728.55 63.38 727.56 61.94
  Q 722.69 54.85 717.65 48.03
  Q 708.25 35.32 689.32 8.20
  A 1.78 1.78 0.0 0 0 687.86 7.44
  L 668.44 7.44
  A 0.43 0.43 0.0 0 0 668.01 7.87
  L 668.01 99.72
  A 0.46 0.46 0.0 0 0 668.47 100.18
  L 688.56 100.18
  A 0.38 0.38 0.0 0 0 688.94 99.80
  L 688.94 43.73
  A 0.46 0.46 0.0 0 1 689.69 43.37
  Q 690.77 44.24 691.76 45.67
  Q 696.63 52.77 701.67 59.59"
/>
<path stroke="#868687" vector-effect="non-scaling-stroke" d="
  M 215.61 99.87
  A 0.34 0.33 -79.1 0 0 215.91 100.33
  L 236.69 100.30
  A 0.85 0.85 0.0 0 0 237.48 99.76
  L 243.50 84.21
  A 1.97 1.97 0.0 0 1 245.33 82.96
  L 283.56 82.97
  A 1.74 1.74 0.0 0 1 285.18 84.08
  L 291.26 99.71
  A 0.86 0.86 0.0 0 0 292.06 100.26
  L 314.24 100.36
  A 0.37 0.37 0.0 0 0 314.58 99.85
  L 276.38 8.13
  A 1.14 1.12 78.6 0 0 275.34 7.43
  L 254.98 7.46
  A 1.54 1.53 11.1 0 0 253.56 8.41
  L 215.61 99.87"
/>
<path stroke="#868687" vector-effect="non-scaling-stroke" d="
  M 543.95 8.10
  A 0.63 0.63 0.0 0 0 543.32 7.47
  L 523.62 7.47
  A 0.63 0.63 0.0 0 0 522.99 8.10
  L 522.99 99.56
  A 0.63 0.63 0.0 0 0 523.62 100.19
  L 543.32 100.19
  A 0.63 0.63 0.0 0 0 543.95 99.56
  L 543.95 8.10"
/>
<path stroke="#868687" vector-effect="non-scaling-stroke" d="
  M 617.68 7.70
  A 0.33 0.33 0.0 0 0 617.38 7.50
  L 595.71 7.50
  A 0.33 0.33 0.0 0 0 595.41 7.70
  L 557.12 99.67
  A 0.33 0.33 0.0 0 0 557.42 100.13
  L 578.29 100.13
  A 0.33 0.33 0.0 0 0 578.59 99.93
  L 585.61 83.07
  A 0.33 0.33 0.0 0 1 585.91 82.87
  L 625.91 82.87
  A 0.33 0.33 0.0 0 1 626.22 83.08
  L 632.77 100.00
  A 0.33 0.33 0.0 0 0 633.08 100.21
  L 655.60 100.21
  A 0.33 0.33 0.0 0 0 655.90 99.75
  L 617.68 7.70"
/>
<path stroke="#868687" vector-effect="non-scaling-stroke" d="
  M 347.52 27.74
  L 347.56 47.78
  A 1.47 1.47 0.0 0 0 349.03 49.25
  L 369.74 49.21
  A 11.82 10.61 -0.1 0 0 381.54 38.58
  L 381.54 36.82
  A 11.82 10.61 -0.1 0 0 369.70 26.23
  L 348.99 26.27
  A 1.47 1.47 0.0 0 0 347.52 27.74"
/>
<path stroke="#868687" vector-effect="non-scaling-stroke" d="
  M 442.82 28.21
  L 442.56 79.59
  A 1.21 1.21 0.0 0 0 443.76 80.80
  L 458.91 80.88
  A 26.36 25.48 0.3 0 0 485.40 55.54
  L 485.42 52.70
  A 26.36 25.48 0.3 0 0 459.19 27.08
  L 444.04 27.00
  A 1.21 1.21 0.0 0 0 442.82 28.21"
/>
<path stroke="#868687" vector-effect="non-scaling-stroke" d="
  M 265.61 31.21
  A 0.72 0.72 0.0 0 0 264.27 31.20
  L 251.04 62.98
  A 0.72 0.72 0.0 0 0 251.71 63.98
  L 277.24 63.98
  A 0.72 0.72 0.0 0 0 277.91 63.00
  L 265.61 31.21"
/>
<path stroke="#868687" vector-effect="non-scaling-stroke" d="
  M 592.57 62.91
  A 0.70 0.70 0.0 0 0 593.21 63.87
  L 618.85 64.10
  A 0.70 0.70 0.0 0 0 619.51 63.14
  L 606.97 31.23
  A 0.70 0.70 0.0 0 0 605.67 31.22
  L 592.57 62.91"
/>
</g>
<path fill="#ffffff" d="
  M 779.00 0.00
  L 779.00 120.00
  L 0.00 120.00
  L 0.00 0.00
  L 779.00 0.00
  Z
  M 110.74 45.98
  L 71.44 45.98
  A 0.58 0.58 0.0 0 0 70.86 46.56
  L 70.86 64.67
  A 0.56 0.55 90.0 0 0 71.41 65.23
  L 90.74 65.23
  A 1.49 1.48 -0.0 0 1 92.23 66.71
  L 92.23 76.71
  A 2.77 2.77 0.0 0 1 90.91 79.07
  C 80.14 85.77 65.12 85.27 55.94 76.22
  Q 49.08 69.47 48.27 58.37
  C 47.67 50.10 49.51 39.87 55.67 33.70
  C 67.36 21.97 85.52 23.16 98.51 31.78
  A 0.66 0.66 0.0 0 0 99.44 31.58
  L 108.61 16.78
  A 1.07 1.06 -54.3 0 0 108.39 15.40
  Q 102.08 10.18 93.60 7.68
  C 64.43 -0.92 33.75 12.62 27.26 43.98
  C 21.45 72.04 36.64 99.44 66.57 102.87
  C 83.41 104.80 98.34 101.12 110.76 89.83
  A 2.38 2.38 0.0 0 0 111.55 88.06
  L 111.55 46.79
  A 0.81 0.81 0.0 0 0 110.74 45.98
  Z
  M 208.30 7.41
  L 188.95 7.41
  A 0.97 0.97 0.0 0 0 187.98 8.38
  Q 187.94 35.77 188.04 60.00
  C 188.07 68.20 187.99 75.50 181.46 80.01
  C 176.26 83.59 167.09 83.70 161.00 82.05
  C 152.79 79.83 150.52 72.24 150.44 64.49
  Q 150.23 42.96 150.35 7.93
  A 0.55 0.54 -0.0 0 0 149.80 7.39
  L 130.15 7.39
  A 0.40 0.39 -0.0 0 0 129.75 7.78
  Q 129.78 22.63 129.66 57.00
  Q 129.62 69.97 130.45 75.09
  C 134.28 98.83 154.23 105.23 175.52 103.51
  Q 191.02 102.26 199.89 92.08
  C 205.75 85.35 208.76 76.54 209.02 67.98
  Q 209.49 52.08 209.23 17.51
  Q 209.17 10.27 208.89 7.93
  A 0.59 0.59 0.0 0 0 208.30 7.41
  Z
  M 404.34 99.50
  L 384.89 65.81
  A 1.03 1.03 0.0 0 1 385.34 64.36
  C 392.21 61.08 397.98 57.43 400.99 50.30
  C 403.70 43.90 403.69 35.36 401.16 28.25
  Q 396.23 14.44 381.35 9.66
  Q 374.68 7.53 369.98 7.50
  Q 345.34 7.34 326.90 7.30
  A 0.58 0.57 0.0 0 0 326.32 7.87
  L 326.32 99.96
  A 0.24 0.24 0.0 0 0 326.56 100.20
  L 346.93 100.20
  A 0.54 0.53 -0.0 0 0 347.47 99.67
  L 347.47 69.76
  A 0.76 0.76 0.0 0 1 348.23 69.00
  L 362.89 69.00
  A 2.16 2.15 -14.9 0 1 364.76 70.08
  L 381.41 98.91
  A 2.54 2.53 -14.9 0 0 383.61 100.18
  L 403.95 100.18
  A 0.45 0.45 0.0 0 0 404.34 99.50
  Z
  M 421.62 100.27
  Q 432.21 100.13 450.58 100.27
  Q 466.45 100.39 472.54 98.70
  C 496.83 91.96 508.34 72.44 507.02 47.93
  C 505.62 21.86 483.71 7.96 459.47 7.52
  Q 452.06 7.39 421.46 7.48
  A 0.46 0.46 0.0 0 0 421.00 7.94
  L 421.00 99.65
  A 0.62 0.62 0.0 0 0 421.62 100.27
  Z
  M 701.67 59.59
  Q 711.07 72.30 730.00 99.41
  A 1.78 1.78 0.0 0 0 731.46 100.18
  L 750.88 100.18
  A 0.43 0.43 0.0 0 0 751.31 99.75
  L 751.31 7.90
  A 0.46 0.46 0.0 0 0 750.85 7.44
  L 730.76 7.44
  A 0.38 0.38 0.0 0 0 730.38 7.82
  L 730.38 63.89
  A 0.46 0.46 0.0 0 1 729.63 64.25
  Q 728.55 63.38 727.56 61.94
  Q 722.69 54.85 717.65 48.03
  Q 708.25 35.32 689.32 8.20
  A 1.78 1.78 0.0 0 0 687.86 7.44
  L 668.44 7.44
  A 0.43 0.43 0.0 0 0 668.01 7.87
  L 668.01 99.72
  A 0.46 0.46 0.0 0 0 668.47 100.18
  L 688.56 100.18
  A 0.38 0.38 0.0 0 0 688.94 99.80
  L 688.94 43.73
  A 0.46 0.46 0.0 0 1 689.69 43.37
  Q 690.77 44.24 691.76 45.67
  Q 696.63 52.77 701.67 59.59
  Z
  M 215.61 99.87
  A 0.34 0.33 -79.1 0 0 215.91 100.33
  L 236.69 100.30
  A 0.85 0.85 0.0 0 0 237.48 99.76
  L 243.50 84.21
  A 1.97 1.97 0.0 0 1 245.33 82.96
  L 283.56 82.97
  A 1.74 1.74 0.0 0 1 285.18 84.08
  L 291.26 99.71
  A 0.86 0.86 0.0 0 0 292.06 100.26
  L 314.24 100.36
  A 0.37 0.37 0.0 0 0 314.58 99.85
  L 276.38 8.13
  A 1.14 1.12 78.6 0 0 275.34 7.43
  L 254.98 7.46
  A 1.54 1.53 11.1 0 0 253.56 8.41
  L 215.61 99.87
  Z
  M 543.95 8.10
  A 0.63 0.63 0.0 0 0 543.32 7.47
  L 523.62 7.47
  A 0.63 0.63 0.0 0 0 522.99 8.10
  L 522.99 99.56
  A 0.63 0.63 0.0 0 0 523.62 100.19
  L 543.32 100.19
  A 0.63 0.63 0.0 0 0 543.95 99.56
  L 543.95 8.10
  Z
  M 617.68 7.70
  A 0.33 0.33 0.0 0 0 617.38 7.50
  L 595.71 7.50
  A 0.33 0.33 0.0 0 0 595.41 7.70
  L 557.12 99.67
  A 0.33 0.33 0.0 0 0 557.42 100.13
  L 578.29 100.13
  A 0.33 0.33 0.0 0 0 578.59 99.93
  L 585.61 83.07
  A 0.33 0.33 0.0 0 1 585.91 82.87
  L 625.91 82.87
  A 0.33 0.33 0.0 0 1 626.22 83.08
  L 632.77 100.00
  A 0.33 0.33 0.0 0 0 633.08 100.21
  L 655.60 100.21
  A 0.33 0.33 0.0 0 0 655.90 99.75
  L 617.68 7.70
  Z"
/>
<path fill="#0d0d0f" d="
  M 111.55 46.79
  L 111.55 88.06
  A 2.38 2.38 0.0 0 1 110.76 89.83
  C 98.34 101.12 83.41 104.80 66.57 102.87
  C 36.64 99.44 21.45 72.04 27.26 43.98
  C 33.75 12.62 64.43 -0.92 93.60 7.68
  Q 102.08 10.18 108.39 15.40
  A 1.07 1.06 -54.3 0 1 108.61 16.78
  L 99.44 31.58
  A 0.66 0.66 0.0 0 1 98.51 31.78
  C 85.52 23.16 67.36 21.97 55.67 33.70
  C 49.51 39.87 47.67 50.10 48.27 58.37
  Q 49.08 69.47 55.94 76.22
  C 65.12 85.27 80.14 85.77 90.91 79.07
  A 2.77 2.77 0.0 0 0 92.23 76.71
  L 92.23 66.71
  A 1.49 1.48 -0.0 0 0 90.74 65.23
  L 71.41 65.23
  A 0.56 0.55 -90.0 0 1 70.86 64.67
  L 70.86 46.56
  A 0.58 0.58 0.0 0 1 71.44 45.98
  L 110.74 45.98
  A 0.81 0.81 0.0 0 1 111.55 46.79
  Z"
/>
<path fill="#0d0d0f" d="
  M 208.89 7.93
  Q 209.17 10.27 209.23 17.51
  Q 209.49 52.08 209.02 67.98
  C 208.76 76.54 205.75 85.35 199.89 92.08
  Q 191.02 102.26 175.52 103.51
  C 154.23 105.23 134.28 98.83 130.45 75.09
  Q 129.62 69.97 129.66 57.00
  Q 129.78 22.63 129.75 7.78
  A 0.40 0.39 -0.0 0 1 130.15 7.39
  L 149.80 7.39
  A 0.55 0.54 0.0 0 1 150.35 7.93
  Q 150.23 42.96 150.44 64.49
  C 150.52 72.24 152.79 79.83 161.00 82.05
  C 167.09 83.70 176.26 83.59 181.46 80.01
  C 187.99 75.50 188.07 68.20 188.04 60.00
  Q 187.94 35.77 187.98 8.38
  A 0.97 0.97 0.0 0 1 188.95 7.41
  L 208.30 7.41
  A 0.59 0.59 0.0 0 1 208.89 7.93
  Z"
/>
<path fill="#0d0d0f" d="
  M 403.95 100.18
  L 383.61 100.18
  A 2.54 2.53 -14.9 0 1 381.41 98.91
  L 364.76 70.08
  A 2.16 2.15 -14.9 0 0 362.89 69.00
  L 348.23 69.00
  A 0.76 0.76 0.0 0 0 347.47 69.76
  L 347.47 99.67
  A 0.54 0.53 -0.0 0 1 346.93 100.20
  L 326.56 100.20
  A 0.24 0.24 0.0 0 1 326.32 99.96
  L 326.32 7.87
  A 0.58 0.57 0.0 0 1 326.90 7.30
  Q 345.34 7.34 369.98 7.50
  Q 374.68 7.53 381.35 9.66
  Q 396.23 14.44 401.16 28.25
  C 403.69 35.36 403.70 43.90 400.99 50.30
  C 397.98 57.43 392.21 61.08 385.34 64.36
  A 1.03 1.03 0.0 0 0 384.89 65.81
  L 404.34 99.50
  A 0.45 0.45 0.0 0 1 403.95 100.18
  Z
  M 347.52 27.74
  L 347.56 47.78
  A 1.47 1.47 0.0 0 0 349.03 49.25
  L 369.74 49.21
  A 11.82 10.61 -0.1 0 0 381.54 38.58
  L 381.54 36.82
  A 11.82 10.61 -0.1 0 0 369.70 26.23
  L 348.99 26.27
  A 1.47 1.47 0.0 0 0 347.52 27.74
  Z"
/>
<path fill="#0d0d0f" d="
  M 421.00 99.65
  L 421.00 7.94
  A 0.46 0.46 0.0 0 1 421.46 7.48
  Q 452.06 7.39 459.47 7.52
  C 483.71 7.96 505.62 21.86 507.02 47.93
  C 508.34 72.44 496.83 91.96 472.54 98.70
  Q 466.45 100.39 450.58 100.27
  Q 432.21 100.13 421.62 100.27
  A 0.62 0.62 0.0 0 1 421.00 99.65
  Z
  M 442.82 28.21
  L 442.56 79.59
  A 1.21 1.21 0.0 0 0 443.76 80.80
  L 458.91 80.88
  A 26.36 25.48 0.3 0 0 485.40 55.54
  L 485.42 52.70
  A 26.36 25.48 0.3 0 0 459.19 27.08
  L 444.04 27.00
  A 1.21 1.21 0.0 0 0 442.82 28.21
  Z"
/>
<path fill="#0d0d0f" d="
  M 701.67 59.59
  Q 696.63 52.77 691.76 45.67
  Q 690.77 44.24 689.69 43.37
  A 0.46 0.46 0.0 0 0 688.94 43.73
  L 688.94 99.80
  A 0.38 0.38 0.0 0 1 688.56 100.18
  L 668.47 100.18
  A 0.46 0.46 0.0 0 1 668.01 99.72
  L 668.01 7.87
  A 0.43 0.43 0.0 0 1 668.44 7.44
  L 687.86 7.44
  A 1.78 1.78 0.0 0 1 689.32 8.20
  Q 708.25 35.32 717.65 48.03
  Q 722.69 54.85 727.56 61.94
  Q 728.55 63.38 729.63 64.25
  A 0.46 0.46 0.0 0 0 730.38 63.89
  L 730.38 7.82
  A 0.38 0.38 0.0 0 1 730.76 7.44
  L 750.85 7.44
  A 0.46 0.46 0.0 0 1 751.31 7.90
  L 751.31 99.75
  A 0.43 0.43 0.0 0 1 750.88 100.18
  L 731.46 100.18
  A 1.78 1.78 0.0 0 1 730.00 99.41
  Q 711.07 72.30 701.67 59.59
  Z"
/>
<path fill="#0d0d0f" d="
  M 215.61 99.87
  L 253.56 8.41
  A 1.54 1.53 11.1 0 1 254.98 7.46
  L 275.34 7.43
  A 1.14 1.12 78.6 0 1 276.38 8.13
  L 314.58 99.85
  A 0.37 0.37 0.0 0 1 314.24 100.36
  L 292.06 100.26
  A 0.86 0.86 0.0 0 1 291.26 99.71
  L 285.18 84.08
  A 1.74 1.74 0.0 0 0 283.56 82.97
  L 245.33 82.96
  A 1.97 1.97 0.0 0 0 243.50 84.21
  L 237.48 99.76
  A 0.85 0.85 0.0 0 1 236.69 100.30
  L 215.91 100.33
  A 0.34 0.33 -79.1 0 1 215.61 99.87
  Z
  M 265.61 31.21
  A 0.72 0.72 0.0 0 0 264.27 31.20
  L 251.04 62.98
  A 0.72 0.72 0.0 0 0 251.71 63.98
  L 277.24 63.98
  A 0.72 0.72 0.0 0 0 277.91 63.00
  L 265.61 31.21
  Z"
/>
<rect fill="#0d0d0f" x="522.99" y="7.47" width="20.96" height="92.72" rx="0.63"/>
<path fill="#0d0d0f" d="
  M 617.68 7.70
  L 655.90 99.75
  A 0.33 0.33 0.0 0 1 655.60 100.21
  L 633.08 100.21
  A 0.33 0.33 0.0 0 1 632.77 100.00
  L 626.22 83.08
  A 0.33 0.33 0.0 0 0 625.91 82.87
  L 585.91 82.87
  A 0.33 0.33 0.0 0 0 585.61 83.07
  L 578.59 99.93
  A 0.33 0.33 0.0 0 1 578.29 100.13
  L 557.42 100.13
  A 0.33 0.33 0.0 0 1 557.12 99.67
  L 595.41 7.70
  A 0.33 0.33 0.0 0 1 595.71 7.50
  L 617.38 7.50
  A 0.33 0.33 0.0 0 1 617.68 7.70
  Z
  M 592.57 62.91
  A 0.70 0.70 0.0 0 0 593.21 63.87
  L 618.85 64.10
  A 0.70 0.70 0.0 0 0 619.51 63.14
  L 606.97 31.23
  A 0.70 0.70 0.0 0 0 605.67 31.22
  L 592.57 62.91
  Z"
/>
<path fill="#ffffff" d="
  M 347.52 27.74
  A 1.47 1.47 0.0 0 1 348.99 26.27
  L 369.70 26.23
  A 11.82 10.61 -0.1 0 1 381.54 36.82
  L 381.54 38.58
  A 11.82 10.61 -0.1 0 1 369.74 49.21
  L 349.03 49.25
  A 1.47 1.47 0.0 0 1 347.56 47.78
  L 347.52 27.74
  Z"
/>
<path fill="#ffffff" d="
  M 442.82 28.21
  A 1.21 1.21 0.0 0 1 444.04 27.00
  L 459.19 27.08
  A 26.36 25.48 0.3 0 1 485.42 52.70
  L 485.40 55.54
  A 26.36 25.48 0.3 0 1 458.91 80.88
  L 443.76 80.80
  A 1.21 1.21 0.0 0 1 442.56 79.59
  L 442.82 28.21
  Z"
/>
<path fill="#ffffff" d="
  M 265.61 31.21
  L 277.91 63.00
  A 0.72 0.72 0.0 0 1 277.24 63.98
  L 251.71 63.98
  A 0.72 0.72 0.0 0 1 251.04 62.98
  L 264.27 31.20
  A 0.72 0.72 0.0 0 1 265.61 31.21
  Z"
/>
<path fill="#ffffff" d="
  M 592.57 62.91
  L 605.67 31.22
  A 0.70 0.70 0.0 0 1 606.97 31.23
  L 619.51 63.14
  A 0.70 0.70 0.0 0 1 618.85 64.10
  L 593.21 63.87
  A 0.70 0.70 0.0 0 1 592.57 62.91
  Z"
/>
</svg>
