<svg xmlns="http://www.w3.org/2000/svg" viewBox="25.47 4.04 726.77 100.32"><path fill="currentColor" d="M 111.55 46.79 L 111.55 88.06 A 2.38 2.38 0.0 0 1 110.76 89.83 C 98.34 101.12 83.41 104.80 66.57 102.87 C 36.64 99.44 21.45 72.04 27.26 43.98 C 33.75 12.62 64.43 -0.92 93.60 7.68 Q 102.08 10.18 108.39 15.40 A 1.07 1.06 -54.3 0 1 108.61 16.78 L 99.44 31.58 A 0.66 0.66 0.0 0 1 98.51 31.78 C 85.52 23.16 67.36 21.97 55.67 33.70 C 49.51 39.87 47.67 50.10 48.27 58.37 Q 49.08 69.47 55.94 76.22 C 65.12 85.27 80.14 85.77 90.91 79.07 A 2.77 2.77 0.0 0 0 92.23 76.71 L 92.23 66.71 A 1.49 1.48 -0.0 0 0 90.74 65.23 L 71.41 65.23 A 0.56 0.55 -90.0 0 1 70.86 64.67 L 70.86 46.56 A 0.58 0.58 0.0 0 1 71.44 45.98 L 110.74 45.98 A 0.81 0.81 0.0 0 1 111.55 46.79 Z M 208.89 7.93 Q 209.17 10.27 209.23 17.51 Q 209.49 52.08 209.02 67.98 C 208.76 76.54 205.75 85.35 199.89 92.08 Q 191.02 102.26 175.52 103.51 C 154.23 105.23 134.28 98.83 130.45 75.09 Q 129.62 69.97 129.66 57.00 Q 129.78 22.63 129.75 7.78 A 0.40 0.39 -0.0 0 1 130.15 7.39 L 149.80 7.39 A 0.55 0.54 0.0 0 1 150.35 7.93 Q 150.23 42.96 150.44 64.49 C 150.52 72.24 152.79 79.83 161.00 82.05 C 167.09 83.70 176.26 83.59 181.46 80.01 C 187.99 75.50 188.07 68.20 188.04 60.00 Q 187.94 35.77 187.98 8.38 A 0.97 0.97 0.0 0 1 188.95 7.41 L 208.30 7.41 A 0.59 0.59 0.0 0 1 208.89 7.93 Z M 403.95 100.18 L 383.61 100.18 A 2.54 2.53 -14.9 0 1 381.41 98.91 L 364.76 70.08 A 2.16 2.15 -14.9 0 0 362.89 69.00 L 348.23 69.00 A 0.76 0.76 0.0 0 0 347.47 69.76 L 347.47 99.67 A 0.54 0.53 -0.0 0 1 346.93 100.20 L 326.56 100.20 A 0.24 0.24 0.0 0 1 326.32 99.96 L 326.32 7.87 A 0.58 0.57 0.0 0 1 326.90 7.30 Q 345.34 7.34 369.98 7.50 Q 374.68 7.53 381.35 9.66 Q 396.23 14.44 401.16 28.25 C 403.69 35.36 403.70 43.90 400.99 50.30 C 397.98 57.43 392.21 61.08 385.34 64.36 A 1.03 1.03 0.0 0 0 384.89 65.81 L 404.34 99.50 A 0.45 0.45 0.0 0 1 403.95 100.18 Z M 347.52 27.74 L 347.56 47.78 A 1.47 1.47 0.0 0 0 349.03 49.25 L 369.74 49.21 A 11.82 10.61 -0.1 0 0 381.54 38.58 L 381.54 36.82 A 11.82 10.61 -0.1 0 0 369.70 26.23 L 348.99 26.27 A 1.47 1.47 0.0 0 0 347.52 27.74 Z M 421.00 99.65 L 421.00 7.94 A 0.46 0.46 0.0 0 1 421.46 7.48 Q 452.06 7.39 459.47 7.52 C 483.71 7.96 505.62 21.86 507.02 47.93 C 508.34 72.44 496.83 91.96 472.54 98.70 Q 466.45 100.39 450.58 100.27 Q 432.21 100.13 421.62 100.27 A 0.62 0.62 0.0 0 1 421.00 99.65 Z M 442.82 28.21 L 442.56 79.59 A 1.21 1.21 0.0 0 0 443.76 80.80 L 458.91 80.88 A 26.36 25.48 0.3 0 0 485.40 55.54 L 485.42 52.70 A 26.36 25.48 0.3 0 0 459.19 27.08 L 444.04 27.00 A 1.21 1.21 0.0 0 0 442.82 28.21 Z M 701.67 59.59 Q 696.63 52.77 691.76 45.67 Q 690.77 44.24 689.69 43.37 A 0.46 0.46 0.0 0 0 688.94 43.73 L 688.94 99.80 A 0.38 0.38 0.0 0 1 688.56 100.18 L 668.47 100.18 A 0.46 0.46 0.0 0 1 668.01 99.72 L 668.01 7.87 A 0.43 0.43 0.0 0 1 668.44 7.44 L 687.86 7.44 A 1.78 1.78 0.0 0 1 689.32 8.20 Q 708.25 35.32 717.65 48.03 Q 722.69 54.85 727.56 61.94 Q 728.55 63.38 729.63 64.25 A 0.46 0.46 0.0 0 0 730.38 63.89 L 730.38 7.82 A 0.38 0.38 0.0 0 1 730.76 7.44 L 750.85 7.44 A 0.46 0.46 0.0 0 1 751.31 7.90 L 751.31 99.75 A 0.43 0.43 0.0 0 1 750.88 100.18 L 731.46 100.18 A 1.78 1.78 0.0 0 1 730.00 99.41 Q 711.07 72.30 701.67 59.59 Z M 215.61 99.87 L 253.56 8.41 A 1.54 1.53 11.1 0 1 254.98 7.46 L 275.34 7.43 A 1.14 1.12 78.6 0 1 276.38 8.13 L 314.58 99.85 A 0.37 0.37 0.0 0 1 314.24 100.36 L 292.06 100.26 A 0.86 0.86 0.0 0 1 291.26 99.71 L 285.18 84.08 A 1.74 1.74 0.0 0 0 283.56 82.97 L 245.33 82.96 A 1.97 1.97 0.0 0 0 243.50 84.21 L 237.48 99.76 A 0.85 0.85 0.0 0 1 236.69 100.30 L 215.91 100.33 A 0.34 0.33 -79.1 0 1 215.61 99.87 Z M 265.61 31.21 A 0.72 0.72 0.0 0 0 264.27 31.20 L 251.04 62.98 A 0.72 0.72 0.0 0 0 251.71 63.98 L 277.24 63.98 A 0.72 0.72 0.0 0 0 277.91 63.00 L 265.61 31.21 Z M 522.99 7.47 h 20.96 v 92.72 h -20.96 Z M 617.68 7.70 L 655.90 99.75 A 0.33 0.33 0.0 0 1 655.60 100.21 L 633.08 100.21 A 0.33 0.33 0.0 0 1 632.77 100.00 L 626.22 83.08 A 0.33 0.33 0.0 0 0 625.91 82.87 L 585.91 82.87 A 0.33 0.33 0.0 0 0 585.61 83.07 L 578.59 99.93 A 0.33 0.33 0.0 0 1 578.29 100.13 L 557.42 100.13 A 0.33 0.33 0.0 0 1 557.12 99.67 L 595.41 7.70 A 0.33 0.33 0.0 0 1 595.71 7.50 L 617.38 7.50 A 0.33 0.33 0.0 0 1 617.68 7.70 Z M 592.57 62.91 A 0.70 0.70 0.0 0 0 593.21 63.87 L 618.85 64.10 A 0.70 0.70 0.0 0 0 619.51 63.14 L 606.97 31.23 A 0.70 0.70 0.0 0 0 605.67 31.22 L 592.57 62.91 Z"/></svg>