<svg xmlns="http://www.w3.org/2000/svg" viewBox="26.52 38.02 582.55 582.55"><style>path{fill:#0a0a0a}@media(prefers-color-scheme:dark){path{fill:#f5f5f5}}</style><path d="M 84.95 134.90 L 317.30 39.21 A 2.98 2.95 -44.7 0 1 319.59 39.21 L 550.94 134.66 A 1.38 1.37 11.1 0 1 551.79 135.91 Q 552.39 202.86 551.78 269.75 Q 551.54 296.90 551.97 332.00 Q 552.52 376.50 534.39 417.16 C 518.53 452.73 494.06 483.89 466.13 511.09 Q 427.14 549.07 383.84 579.86 C 363.43 594.38 345.01 604.67 319.73 619.50 A 2.53 2.52 44.8 0 1 317.16 619.50 C 291.86 604.79 274.89 595.47 253.69 580.74 Q 233.46 566.68 208.17 546.19 Q 166.94 512.77 135.68 472.86 Q 122.81 456.43 111.41 436.09 Q 83.24 385.87 83.93 328.51 Q 84.15 310.64 84.05 292.75 Q 83.65 220.60 83.86 143.25 Q 83.87 138.37 84.42 135.54 A 0.88 0.87 -5.9 0 1 84.95 134.90 Z M 232.20 489.61 Q 232.96 487.03 232.93 483.75 C 232.54 442.21 233.67 396.89 232.26 355.77 A 2.85 2.83 15.7 0 0 230.97 353.49 C 217.87 344.94 205.84 336.52 195.02 325.91 C 193.21 324.13 191.50 321.74 190.74 319.71 Q 181.20 294.23 177.68 266.63 A 0.64 0.64 0.0 0 1 178.56 265.96 L 269.31 304.51 A 1.53 1.53 0.0 0 1 270.24 305.93 L 268.66 519.78 A 2.02 2.01 17.8 0 0 269.52 521.45 Q 298.58 542.02 317.13 554.14 Q 319.26 555.53 321.18 554.19 Q 339.45 541.40 364.49 523.17 A 3.61 3.60 -18.1 0 0 365.97 520.26 Q 366.10 409.32 364.61 306.36 A 0.82 0.81 -12.5 0 1 365.10 305.60 L 455.62 266.93 A 0.57 0.57 0.0 0 1 456.41 267.50 C 454.97 284.61 451.46 301.38 445.19 317.45 C 441.69 326.41 435.81 330.77 427.39 337.07 C 419.97 342.61 411.45 347.91 403.59 353.08 A 2.91 2.91 0.0 0 0 402.25 355.53 L 402.60 490.76 A 0.45 0.45 0.0 0 0 403.34 491.10 C 428.18 470.03 450.83 445.88 467.84 418.85 Q 479.29 400.65 485.83 381.83 Q 491.72 364.90 493.48 345.61 Q 493.92 340.75 493.57 308.46 Q 493.05 259.15 493.65 195.62 Q 493.66 194.78 492.82 194.77 Q 492.69 194.76 492.21 194.97 Q 489.65 196.02 343.66 258.73 A 1.88 1.87 -11.7 0 0 342.53 260.45 L 343.18 396.79 A 3.90 3.89 73.2 0 1 341.43 400.06 Q 329.09 408.19 319.65 414.70 Q 317.99 415.84 316.34 414.71 Q 302.08 404.96 293.27 399.10 A 2.34 2.32 17.8 0 1 292.23 397.09 Q 292.42 390.92 292.42 390.62 Q 292.23 349.29 292.44 310.48 C 292.54 292.93 292.09 277.13 291.98 260.50 A 2.13 2.12 -78.6 0 0 290.70 258.56 L 143.29 194.85 A 0.64 0.64 0.0 0 0 142.39 195.44 Q 142.37 320.33 142.33 323.66 Q 142.09 344.02 143.67 354.30 C 149.12 389.81 166.42 420.37 189.58 447.45 Q 208.78 469.89 231.76 489.74 A 0.27 0.27 0.0 0 0 232.20 489.61 Z"/></svg>